<svg width="18" height="16" viewBox="0 0 18 16" fill="none" xmlns="http://www.w3.org/2000/svg">
<path d="M15.8 1.84167C14.9153 0.95668 13.7423 0.418613 12.4944 0.325325C11.2464 0.232038 10.0065 0.589726 9.00001 1.33334C7.93972 0.544705 6.62 0.1871 5.30661 0.332539C3.99321 0.477977 2.78371 1.11566 1.92165 2.11716C1.05959 3.11867 0.609024 4.40961 0.660673 5.73002C0.712322 7.05043 1.26235 8.30223 2.20001 9.23334L8.40834 15.4417C8.48581 15.5198 8.57798 15.5818 8.67953 15.6241C8.78107 15.6664 8.89 15.6882 9.00001 15.6882C9.11002 15.6882 9.21894 15.6664 9.32049 15.6241C9.42204 15.5818 9.5142 15.5198 9.59167 15.4417L15.8 9.23334C16.2856 8.74811 16.6707 8.17196 16.9335 7.53781C17.1963 6.90367 17.3316 6.22395 17.3316 5.53751C17.3316 4.85107 17.1963 4.17135 16.9335 3.5372C16.6707 2.90306 16.2856 2.32691 15.8 1.84167ZM14.625 8.05834L9.00001 13.675L3.37501 8.05834C2.87932 7.56059 2.54165 6.92755 2.40436 6.23863C2.26708 5.5497 2.33628 4.83558 2.6033 4.18584C2.87032 3.53609 3.32325 2.97967 3.90529 2.58636C4.48733 2.19305 5.17256 1.98037 5.87501 1.97501C6.81343 1.97731 7.71259 2.35195 8.37501 3.01667C8.45248 3.09478 8.54464 3.15678 8.64619 3.19908C8.74774 3.24139 8.85666 3.26317 8.96667 3.26317C9.07668 3.26317 9.1856 3.24139 9.28715 3.19908C9.3887 3.15678 9.48087 3.09478 9.55834 3.01667C10.2403 2.42574 11.1213 2.11596 12.023 2.15003C12.9247 2.18409 13.7798 2.55946 14.4152 3.20017C15.0506 3.84087 15.4188 4.69904 15.4454 5.601C15.472 6.50296 15.1549 7.38133 14.5583 8.05834H14.625Z" fill="#0D1523"/>
</svg>
